REM DIRINDEX 1\2,1\4,1\5,1\6,1\7,1\3\8,1\3\9,1\3\10
REM DIRNAME folder01,folder02,folder03,folder04,folder05,folder06,folder07,folder08,folder09,folder10
TITLE ""
FILE "DB4500_5th_6C_52.mp3" MP3
  TRACK 01 AUDIO
    TITLE "0:"
    INDEX 01 00:00:00
  TRACK 02 AUDIO
    TITLE "8:cjc113_5387"
    INDEX 01 00:00:01
  TRACK 03 AUDIO
    TITLE "0:"
    INDEX 01 00:01:30
  TRACK 04 AUDIO
    TITLE "9:cjc113_5388"
    INDEX 01 00:01:48
  TRACK 05 AUDIO
    TITLE "0:"
    INDEX 01 00:03:00
  TRACK 06 AUDIO
    TITLE "10:cjc113_5389"
    INDEX 01 00:03:17
  TRACK 07 AUDIO
    TITLE "0:"
    INDEX 01 00:06:06
  TRACK 08 AUDIO
    TITLE "8:cjc113_5390"
    INDEX 01 00:06:47
  TRACK 09 AUDIO
    TITLE "0:"
    INDEX 01 00:07:62
  TRACK 10 AUDIO
    TITLE "9:cjc113_5391"
    INDEX 01 00:08:05
  TRACK 11 AUDIO
    TITLE "0:"
    INDEX 01 00:09:30
  TRACK 12 AUDIO
    TITLE "10:cjc113_5392"
    INDEX 01 00:09:45
  TRACK 13 AUDIO
    TITLE "0:"
    INDEX 01 00:13:14
  TRACK 14 AUDIO
    TITLE "8:cjc113_5393"
    INDEX 01 00:13:55
  TRACK 15 AUDIO
    TITLE "0:"
    INDEX 01 00:15:09
  TRACK 16 AUDIO
    TITLE "9:cjc113_5394"
    INDEX 01 00:15:27
  TRACK 17 AUDIO
    TITLE "0:"
    INDEX 01 00:16:40
  TRACK 18 AUDIO
    TITLE "10:cjc113_5395"
    INDEX 01 00:16:57
  TRACK 19 AUDIO
    TITLE "0:"
    INDEX 01 00:22:05
  TRACK 20 AUDIO
    TITLE "8:cjc113_5396"
    INDEX 01 00:22:36
  TRACK 21 AUDIO
    TITLE "0:"
    INDEX 01 00:23:63
  TRACK 22 AUDIO
    TITLE "9:cjc113_5397"
    INDEX 01 00:24:06
  TRACK 23 AUDIO
    TITLE "0:"
    INDEX 01 00:25:48
  TRACK 24 AUDIO
    TITLE "10:cjc113_5398"
    INDEX 01 00:25:60
  TRACK 25 AUDIO
    TITLE "0:"
    INDEX 01 00:29:21
  TRACK 26 AUDIO
    TITLE "8:cjc113_5399"
    INDEX 01 00:29:60
  TRACK 27 AUDIO
    TITLE "0:"
    INDEX 01 00:31:16
  TRACK 28 AUDIO
    TITLE "9:cjc113_5400"
    INDEX 01 00:31:33
  TRACK 29 AUDIO
    TITLE "0:"
    INDEX 01 00:33:21
  TRACK 30 AUDIO
    TITLE "10:cjc113_5401"
    INDEX 01 00:33:34
  TRACK 31 AUDIO
    TITLE "0:"
    INDEX 01 00:36:31
  TRACK 32 AUDIO
    TITLE "8:cjc113_5402"
    INDEX 01 00:36:68
  TRACK 33 AUDIO
    TITLE "0:"
    INDEX 01 00:38:18
  TRACK 34 AUDIO
    TITLE "9:cjc113_5403"
    INDEX 01 00:38:30
  TRACK 35 AUDIO
    TITLE "0:"
    INDEX 01 00:39:56
  TRACK 36 AUDIO
    TITLE "10:cjc113_5404"
    INDEX 01 00:39:70
  TRACK 37 AUDIO
    TITLE "0:"
    INDEX 01 00:44:34
  TRACK 38 AUDIO
    TITLE "8:cjc113_5405"
    INDEX 01 00:44:73
  TRACK 39 AUDIO
    TITLE "0:"
    INDEX 01 00:46:09
  TRACK 40 AUDIO
    TITLE "9:cjc113_5406"
    INDEX 01 00:46:23
  TRACK 41 AUDIO
    TITLE "0:"
    INDEX 01 00:47:46
  TRACK 42 AUDIO
    TITLE "10:cjc113_5407"
    INDEX 01 00:47:62
  TRACK 43 AUDIO
    TITLE "0:"
    INDEX 01 00:51:01
  TRACK 44 AUDIO
    TITLE "8:cjc113_5408"
    INDEX 01 00:51:38
  TRACK 45 AUDIO
    TITLE "0:"
    INDEX 01 00:52:49
  TRACK 46 AUDIO
    TITLE "9:cjc113_5409"
    INDEX 01 00:52:65
  TRACK 47 AUDIO
    TITLE "0:"
    INDEX 01 00:54:03
  TRACK 48 AUDIO
    TITLE "10:cjc113_5410"
    INDEX 01 00:54:17
  TRACK 49 AUDIO
    TITLE "0:"
    INDEX 01 00:59:26
  TRACK 50 AUDIO
    TITLE "8:cjc113_5411"
    INDEX 01 00:59:63
  TRACK 51 AUDIO
    TITLE "0:"
    INDEX 01 01:01:09
  TRACK 52 AUDIO
    TITLE "9:cjc113_5412"
    INDEX 01 01:01:23
  TRACK 53 AUDIO
    TITLE "0:"
    INDEX 01 01:02:48
  TRACK 54 AUDIO
    TITLE "10:cjc113_5413"
    INDEX 01 01:02:63
  TRACK 55 AUDIO
    TITLE "0:"
    INDEX 01 01:05:69
  TRACK 56 AUDIO
    TITLE "8:cjc113_5414"
    INDEX 01 01:06:34
  TRACK 57 AUDIO
    TITLE "0:"
    INDEX 01 01:07:43
  TRACK 58 AUDIO
    TITLE "9:cjc113_5415"
    INDEX 01 01:07:57
  TRACK 59 AUDIO
    TITLE "0:"
    INDEX 01 01:09:10
  TRACK 60 AUDIO
    TITLE "10:cjc113_5416"
    INDEX 01 01:09:24
  TRACK 61 AUDIO
    TITLE "0:"
    INDEX 01 01:13:47
  TRACK 62 AUDIO
    TITLE "8:cjc113_5417"
    INDEX 01 01:14:12
  TRACK 63 AUDIO
    TITLE "0:"
    INDEX 01 01:15:27
  TRACK 64 AUDIO
    TITLE "9:cjc113_5418"
    INDEX 01 01:15:40
  TRACK 65 AUDIO
    TITLE "0:"
    INDEX 01 01:17:00
  TRACK 66 AUDIO
    TITLE "10:cjc113_5419"
    INDEX 01 01:17:18
  TRACK 67 AUDIO
    TITLE "0:"
    INDEX 01 01:20:49
  TRACK 68 AUDIO
    TITLE "8:cjc113_5420"
    INDEX 01 01:21:14
  TRACK 69 AUDIO
    TITLE "0:"
    INDEX 01 01:22:27
  TRACK 70 AUDIO
    TITLE "9:cjc113_5421"
    INDEX 01 01:22:41
  TRACK 71 AUDIO
    TITLE "0:"
    INDEX 01 01:24:02
  TRACK 72 AUDIO
    TITLE "10:cjc113_5422"
    INDEX 01 01:24:18
  TRACK 73 AUDIO
    TITLE "0:"
    INDEX 01 01:27:06
  TRACK 74 AUDIO
    TITLE "8:cjc113_5423"
    INDEX 01 01:27:44
  TRACK 75 AUDIO
    TITLE "0:"
    INDEX 01 01:28:63
  TRACK 76 AUDIO
    TITLE "9:cjc113_5424"
    INDEX 01 01:29:03
  TRACK 77 AUDIO
    TITLE "0:"
    INDEX 01 01:30:52
  TRACK 78 AUDIO
    TITLE "10:cjc113_5425"
    INDEX 01 01:30:69
  TRACK 79 AUDIO
    TITLE "0:"
    INDEX 01 01:34:40
